<svg xmlns="http://www.w3.org/2000/svg" viewBox="0 0 475 210"><defs><style>.a{fill:#5d87a1;}.b{fill:#f8981d;}</style></defs><title>integration-tile</title><path class="a" d="M94.15,139.25H89.41q-.25-12-1.39-22.56h0l-7.23,22.56h-3.6L70,116.69h0q-.8,10.16-1,22.56H64.67q.42-15.11,2.09-28.31H72.6l6.82,20.77h0l6.87-20.77h5.61q1.85,15.45,2.19,28.27"/><path class="a" d="M114.65,118.37q-2.92,15.68-7.62,22.79-3.69,5.48-8.06,5.48a8,8,0,0,1-2.92-.73v-2.52a13.71,13.71,0,0,0,2,.12,4.76,4.76,0,0,0,3.31-1.13,4.13,4.13,0,0,0,1.48-3.13,20.65,20.65,0,0,0-1.17-4.82l-5.11-16.1h4.63l3.71,12.08q1.26,4.11,1,5.76a78.74,78.74,0,0,0,4.27-17.8h4.49Z"/><polygon class="b" points="177.64 139.22 164.2 139.22 164.2 110.95 168.73 110.95 168.73 135.74 177.64 135.74 177.64 139.22"/><path class="b" d="M160.69,139.9l-5.17-2.56a9.74,9.74,0,0,0,1.3-1.26q3.31-3.89,3.31-11.52,0-14-11-14a10.45,10.45,0,0,0-8.42,3.56q-3.31,3.9-3.31,11.47t2.92,10.95q2.68,3.14,8.09,3.14a13,13,0,0,0,3.7-.5l6.76,3.94Zm-16.85-6.34q-1.71-2.77-1.71-8.87,0-10.68,6.49-10.68a5.45,5.45,0,0,1,5,2.55q1.71,2.77,1.71,8.79,0,10.76-6.49,10.76a5.44,5.44,0,0,1-5-2.55"/><path class="b" d="M135.39,131.39a7.5,7.5,0,0,1-2.63,5.9,10.38,10.38,0,0,1-7.07,2.3,14.18,14.18,0,0,1-8-2.64l1.21-2.43a13.78,13.78,0,0,0,6.06,1.67,6.37,6.37,0,0,0,4-1.12,3.85,3.85,0,0,0,1.54-3.11c0-1.68-1.17-3.12-3.32-4.31-2-1.09-5.93-3.36-5.93-3.36a6.82,6.82,0,0,1-3.28-6,7,7,0,0,1,2.41-5.55,9.08,9.08,0,0,1,6.22-2.12,12.87,12.87,0,0,1,7.16,2.09l-1.09,2.42a13.86,13.86,0,0,0-5.44-1.17,4.85,4.85,0,0,0-3.35,1.05,3.5,3.5,0,0,0-1.27,2.68c0,1.67,1.2,3.12,3.4,4.38,2,1.09,6.06,3.4,6.06,3.4,2.19,1.56,3.31,3.23,3.31,6"/><path class="a" d="M183.32,101.48a15.79,15.79,0,0,0-6.65,1c-.51.2-1.33.2-1.4.85a6.44,6.44,0,0,1,.55,1.09,8,8,0,0,0,1.77,2.08c.73.55,1.46,1.09,2.19,1.57,1.33.82,2.83,1.3,4.13,2.12.73.47,1.5,1.09,2.25,1.61a4.5,4.5,0,0,0,1.09.88v-.09c-.24-.31-.31-.73-.55-1.09a7.38,7.38,0,0,0-1-1,16.27,16.27,0,0,0-3.53-3.47c-1.09-.73-3.49-1.78-3.93-3l-.07-.07a13.73,13.73,0,0,0,2.36-.55c1.16-.31,2.19-.24,3.42-.55.55-.14,1.09-.31,1.64-.47V102c-.62-.61-1.06-1.46-1.71-2a45.73,45.73,0,0,0-5.63-4.2c-1.06-.69-2.43-1.12-3.55-1.71a3.72,3.72,0,0,1-1.33-.65,13.7,13.7,0,0,1-1.4-2.63c-1-1.88-1.95-4-2.8-5.94A36.49,36.49,0,0,0,167.41,81a34.14,34.14,0,0,0-13.22-12.77,16.37,16.37,0,0,0-4.38-1.4c-.85,0-1.71-.1-2.56-.14a13.62,13.62,0,0,1-1.58-1.2c-2-1.23-7-3.9-8.42-.38-.92,2.19,1.36,4.38,2.15,5.53a16,16,0,0,1,1.74,2.56c.24.58.31,1.2.55,1.81a40.71,40.71,0,0,0,1.8,4.58,16.15,16.15,0,0,0,1.26,2.12,2.69,2.69,0,0,1,.85,1.16,10,10,0,0,0-.79,2.56c-1.23,3.86-.73,8.64,1,11.48.55.85,1.85,2.74,3.59,2,1.54-.61,1.2-2.56,1.64-4.27a2.44,2.44,0,0,1,.24-1v.07c.47,1,1,1.88,1.4,2.83a19.49,19.49,0,0,0,4.45,4.57c.82.62,1.46,1.67,2.49,2.05v-.09h-.08a3.76,3.76,0,0,0-.79-.68,16.78,16.78,0,0,1-1.79-2.06,43.72,43.72,0,0,1-3.82-6.22c-.55-1.06-1-2.19-1.46-3.28-.2-.41-.2-1-.55-1.23A12.81,12.81,0,0,0,149.48,92a18.71,18.71,0,0,0-1,5.16c-.14,0-.07,0-.14.07-1.09-.27-1.46-1.4-1.88-2.35a14.78,14.78,0,0,1-.31-9.12c.24-.73,1.26-3,.85-3.65-.2-.65-.89-1-1.26-1.54a13.52,13.52,0,0,1-1.23-2.19c-.82-1.91-1.23-4-2.12-5.94a18.24,18.24,0,0,0-1.71-2.63,16.91,16.91,0,0,1-1.88-2.66,1.58,1.58,0,0,1-.14-1.4.55.55,0,0,1,.48-.45c.45-.37,1.71.1,2.15.31a17.35,17.35,0,0,1,3.38,1.71,6.09,6.09,0,0,0,1.62,1.17h.73c1.09.23,2.32.07,3.35.37a21.89,21.89,0,0,1,4.92,2.36A30.31,30.31,0,0,1,166,82.87c.41.78.58,1.5,1,2.32.73,1.68,1.61,3.39,2.32,5a22.45,22.45,0,0,0,2.43,4.58c.51.73,2.56,1.09,3.48,1.46a24.45,24.45,0,0,1,2.36,1c1.16.73,2.32,1.54,3.42,2.32.55.41,2.25,1.26,2.36,1.95"/><path class="a" d="M148.48,71.8a5.45,5.45,0,0,0-1.4.17V72h0a11.53,11.53,0,0,0,1.07,1.39c.28.55.51,1.09.79,1.63L149,75a1.92,1.92,0,0,0,.73-1.71,7.7,7.7,0,0,1-.41-.73,5.11,5.11,0,0,0-.92-.79"/><path class="b" d="M186.58,139.25h.73v-3.5h-1.07l-.87,2.36-.94-2.36h-1v3.5h.67v-2.63h0l1,2.63h.51l1-2.63v2.63h0Zm-5.7,0h.73v-2.92h1v-.58h-2.75v.58h1v2.92h0Z"/><path class="a" d="M206.42,138.36l-7.12-26.83h5.47l2.82,12.33c.73,3.31,1.46,6.84,1.95,9.27h.08c.47-2.58,1.23-5.89,2.11-9.3l3.12-12.3h5.73l2.82,12.61c.68,3.23,1.27,6.21,1.71,8.87h.08c.48-2.74,1.23-5.84,2-9.19l3.14-12.3h5.25l-8,26.81h-5.53l-3-13.23a84.33,84.33,0,0,1-1.59-8.39h-.09a70,70,0,0,1-1.87,8.36l-3.42,13.29h-5.68Z"/><path class="a" d="M246.46,138.83c-5.93,0-10.62-3.9-10.62-10s4.38-10.34,11-10.34c6.33,0,10.54,4.22,10.54,9.95,0,6.88-5.29,10.38-10.9,10.38h0Zm.16-3.65c3.06,0,5.49-2.35,5.49-6.57,0-3.1-1.63-6.44-5.41-6.44s-5.57,3.18-5.57,6.52c0,3.9,2.31,6.49,5.45,6.49h0Z"/><path class="a" d="M261.69,125.46c0-2.86,0-4.74-.16-6.49h4.38l.16,3.94h.16a6.19,6.19,0,0,1,5.76-4.38,6.28,6.28,0,0,1,1.23.12v4.74a9.17,9.17,0,0,0-1.63-.16A4.44,4.44,0,0,0,266.9,127a7.87,7.87,0,0,0-.12,1.35v10h-5.11V125.46Z"/><path class="a" d="M282.13,127.42h.08c.48-.68,1.12-1.51,1.71-2.23l5.25-6.21h6.33l-8,7.87,9.2,11.51h-6.44l-6.3-8.59-1.85,2.07v6.52H277V109.9h5.11v17.51Z"/><path class="a" d="M299.64,109.87h5.11v11.93h.08a7.89,7.89,0,0,1,6.88-3.3c5.11,0,9,3.9,9,9.87,0,7-5,10.46-9.67,10.46a7.51,7.51,0,0,1-6.88-3.58H304l-.2,3.1h-4.38c.12-1.28.16-3.38.16-5.49v-23ZM304.75,130a5.75,5.75,0,0,0,.12,1.15,5.11,5.11,0,0,0,5,3.76c3.42,0,5.6-2.35,5.6-6.28,0-3.38-1.9-6.21-5.53-6.21a5.11,5.11,0,0,0-5,3.94,6.11,6.11,0,0,0-.17,1.26Z"/><path class="a" d="M328.46,130.08c.16,3.26,3.1,4.93,6.52,4.93a16.71,16.71,0,0,0,6-1l.8,3.46a20.16,20.16,0,0,1-7.44,1.31c-6.68,0-10.7-3.94-10.7-9.9,0-5,3.3-10.42,10.22-10.42s9.07,5.69,9.07,9.59a8,8,0,0,1-.2,2H328.46Zm9.59-3.54a4.34,4.34,0,0,0-4.53-4.62,5.1,5.1,0,0,0-5,4.62h9.58Z"/><path class="a" d="M347.13,124.83c0-2.23,0-4.17-.16-5.84h4.48l.24,3.1h.12a7.7,7.7,0,0,1,6.72-3.58c3.42,0,7.52,2.07,7.52,8.71v11.14h-5.11v-10.5c0-3.06-1.23-5.25-4.17-5.25a4.58,4.58,0,0,0-4.25,3,4.45,4.45,0,0,0-.24,1.51v11.22h-5.11V124.83Z"/><path class="a" d="M387.27,137.72a16.28,16.28,0,0,1-6.21,1.11c-6.57,0-10.74-4.06-10.74-10,0-5.76,4.22-10.34,11.57-10.34a14.69,14.69,0,0,1,5.37,1l-.91,3.78a9.09,9.09,0,0,0-4.25-.88c-4.06,0-6.57,2.66-6.52,6.2,0,4,2.92,6.21,6.52,6.21a11.21,11.21,0,0,0,4.45-.88Z"/><path class="a" d="M391.42,109.87h5.11v11.93h.08a7.52,7.52,0,0,1,2.71-2.39,7.71,7.71,0,0,1,3.58-.91c3.39,0,7.44,2.07,7.44,8.71v11.14h-5.11V127.89c0-3.06-1.2-5.25-4.22-5.25a4.55,4.55,0,0,0-4.22,2.86,3.49,3.49,0,0,0-.24,1.46v11.38h-5.11V109.87Z"/></svg>